<svg width="16" height="17" viewBox="0 0 16 17" fill="none" xmlns="http://www.w3.org/2000/svg">
<path d="M14 11.25V5.62503L9.3125 2.9884M6.6875 2.9884L2 5.62503V11.25M3.125 13.008L8 15.75L11 14.0625L12.875 13.008M8 6.37503L9.125 7.03128L10.25 7.68753V10.3125L9.125 10.9688L8 11.625L6.875 10.9688L5.75 10.3125V7.68753L6.875 7.03128L8 6.37503ZM8 6.37503V3.75003M10.25 10.125L12.875 11.625M5.75 10.125L3.125 11.625" stroke="#757575" stroke-width="1.5" stroke-linecap="round" stroke-linejoin="round"/>
<path d="M8 3.75C8.62132 3.75 9.125 3.24632 9.125 2.625C9.125 2.00368 8.62132 1.5 8 1.5C7.37868 1.5 6.875 2.00368 6.875 2.625C6.875 3.24632 7.37868 3.75 8 3.75Z" stroke="#757575" stroke-width="1.5" stroke-linecap="round" stroke-linejoin="round"/>
<path d="M2 13.5C2.62132 13.5 3.125 12.9963 3.125 12.375C3.125 11.7537 2.62132 11.25 2 11.25C1.37868 11.25 0.875 11.7537 0.875 12.375C0.875 12.9963 1.37868 13.5 2 13.5Z" stroke="#757575" stroke-width="1.5" stroke-linecap="round" stroke-linejoin="round"/>
<path d="M14 13.5C14.6213 13.5 15.125 12.9963 15.125 12.375C15.125 11.7537 14.6213 11.25 14 11.25C13.3787 11.25 12.875 11.7537 12.875 12.375C12.875 12.9963 13.3787 13.5 14 13.5Z" stroke="#757575" stroke-width="1.5" stroke-linecap="round" stroke-linejoin="round"/>
</svg>
