<svg width="16" height="16" viewBox="0 0 16 16" fill="none" xmlns="http://www.w3.org/2000/svg">
<path d="M1.41085 0.928589C1.53873 0.928589 1.66136 0.979386 1.75178 1.06981C1.8422 1.16022 1.893 1.28286 1.893 1.41073V12.6607C1.893 13.0443 2.04539 13.4123 2.31665 13.6835C2.5879 13.9548 2.95581 14.1072 3.33943 14.1072H14.5894C14.7173 14.1072 14.8399 14.158 14.9304 14.2484C15.0208 14.3388 15.0716 14.4614 15.0716 14.5893C15.0716 14.7172 15.0208 14.8398 14.9304 14.9302C14.8399 15.0206 14.7173 15.0714 14.5894 15.0714H3.33943C2.70006 15.0714 2.08689 14.8175 1.63479 14.3654C1.1827 13.9133 0.928711 13.3001 0.928711 12.6607V1.41073C0.928711 1.28286 0.979508 1.16022 1.06993 1.06981C1.16035 0.979386 1.28298 0.928589 1.41085 0.928589ZM13.1044 3.82145L9.44657 7.4793L7.85871 5.89145C7.76831 5.80116 7.64576 5.75044 7.518 5.75044C7.39023 5.75044 7.26768 5.80116 7.17728 5.89145L3.64157 9.42716C3.5942 9.4713 3.5562 9.52453 3.52985 9.58367C3.5035 9.64281 3.48933 9.70666 3.48819 9.7714C3.48705 9.83613 3.49895 9.90044 3.5232 9.96047C3.54745 10.0205 3.58355 10.075 3.62933 10.1208C3.67511 10.1666 3.72965 10.2027 3.78968 10.227C3.84972 10.2512 3.91402 10.2631 3.97876 10.262C4.0435 10.2608 4.10734 10.2467 4.16649 10.2203C4.22563 10.194 4.27886 10.156 4.323 10.1086L7.518 6.91359L9.10585 8.50145C9.19626 8.59174 9.3188 8.64245 9.44657 8.64245C9.57434 8.64245 9.69688 8.59174 9.78728 8.50145L13.7859 4.50287V6.87502C13.7859 7.00289 13.8366 7.12552 13.9271 7.21594C14.0175 7.30636 14.1401 7.35716 14.268 7.35716C14.3959 7.35716 14.5185 7.30636 14.6089 7.21594C14.6993 7.12552 14.7501 7.00289 14.7501 6.87502V3.3393C14.7501 3.21143 14.6993 3.0888 14.6089 2.99838C14.5185 2.90796 14.3959 2.85716 14.268 2.85716H10.7323C10.6044 2.85716 10.4818 2.90796 10.3914 2.99838C10.3009 3.0888 10.2501 3.21143 10.2501 3.3393C10.2501 3.46718 10.3009 3.58981 10.3914 3.68023C10.4818 3.77065 10.6044 3.82145 10.7323 3.82145H13.1044Z" fill="#757575"/>
</svg>
