<svg width="17" height="15" viewBox="0 0 17 15" fill="none" xmlns="http://www.w3.org/2000/svg">
<path d="M16.1951 8.91828C15.9858 8.75724 15.7421 8.64662 15.4831 8.59504C15.2241 8.54346 14.9567 8.55229 14.7016 8.62086L11.7598 9.29727C11.8282 9.00814 11.8303 8.70726 11.7659 8.4172C11.7016 8.12714 11.5724 7.85541 11.3881 7.62237C11.2037 7.38934 10.969 7.20105 10.7016 7.07162C10.4341 6.94219 10.1409 6.87497 9.84375 6.875H6.32391C6.02831 6.87426 5.7355 6.9321 5.46239 7.04518C5.18928 7.15827 4.94129 7.32435 4.73273 7.53383L3.14227 9.125H1.125C0.826631 9.125 0.540483 9.24353 0.329505 9.45451C0.118526 9.66548 0 9.95163 0 10.25L0 13.0625C0 13.3609 0.118526 13.647 0.329505 13.858C0.540483 14.069 0.826631 14.1875 1.125 14.1875H8.4375C8.48349 14.1875 8.5293 14.1818 8.57391 14.1706L13.0739 13.0456C13.1026 13.0388 13.1306 13.0294 13.1576 13.0175L15.8906 11.8545L15.9216 11.8405C16.1842 11.7092 16.4092 11.5133 16.5752 11.2711C16.7412 11.0288 16.8428 10.7484 16.8704 10.456C16.8981 10.1637 16.8508 9.86915 16.7332 9.60012C16.6155 9.33109 16.4313 9.09644 16.1979 8.91828H16.1951ZM1.125 10.25H2.8125V13.0625H1.125V10.25ZM15.4287 10.8273L12.7568 11.9649L8.36719 13.0625H3.9375V9.92024L5.52867 8.32977C5.63276 8.22485 5.75666 8.14166 5.89318 8.08505C6.0297 8.02844 6.17612 7.99953 6.32391 8H9.84375C10.0675 8 10.2821 8.0889 10.4404 8.24713C10.5986 8.40536 10.6875 8.61997 10.6875 8.84375C10.6875 9.06753 10.5986 9.28214 10.4404 9.44037C10.2821 9.59861 10.0675 9.6875 9.84375 9.6875H7.875C7.72582 9.6875 7.58274 9.74676 7.47725 9.85225C7.37176 9.95774 7.3125 10.1008 7.3125 10.25C7.3125 10.3992 7.37176 10.5423 7.47725 10.6477C7.58274 10.7532 7.72582 10.8125 7.875 10.8125H10.125C10.1673 10.8124 10.2095 10.8077 10.2509 10.7984L14.9618 9.71492L14.9836 9.7093C15.1274 9.66937 15.2809 9.68404 15.4145 9.75049C15.5482 9.81693 15.6525 9.93045 15.7075 10.0692C15.7625 10.208 15.7642 10.3621 15.7123 10.5021C15.6605 10.642 15.5587 10.7579 15.4266 10.8273H15.4287ZM11.5312 5.75C11.6702 5.75016 11.809 5.73887 11.9461 5.71625C12.1003 6.17437 12.3825 6.57874 12.7593 6.88157C13.136 7.1844 13.5916 7.37301 14.0722 7.42511C14.5528 7.47721 15.0382 7.39062 15.4711 7.17558C15.904 6.96053 16.2663 6.62602 16.5152 6.2116C16.764 5.79718 16.889 5.32018 16.8753 4.83699C16.8616 4.3538 16.7099 3.88463 16.438 3.48495C16.1661 3.08527 15.7855 2.77179 15.3411 2.58158C14.8967 2.39136 14.4072 2.33236 13.9303 2.41156C13.7818 1.97017 13.5144 1.57831 13.1575 1.27909C12.8007 0.979879 12.3682 0.784913 11.9077 0.715652C11.4471 0.646391 10.9764 0.705519 10.5474 0.886531C10.1183 1.06754 9.74744 1.36342 9.47567 1.7416C9.2039 2.11978 9.04173 2.56561 9.00701 3.03001C8.97229 3.49442 9.06635 3.95941 9.27886 4.3738C9.49137 4.78819 9.81408 5.13592 10.2115 5.37873C10.6089 5.62154 11.0655 5.75001 11.5312 5.75ZM15.75 4.90625C15.75 5.18438 15.6675 5.45626 15.513 5.68752C15.3585 5.91878 15.1389 6.09902 14.8819 6.20546C14.6249 6.31189 14.3422 6.33974 14.0694 6.28548C13.7966 6.23122 13.546 6.09729 13.3494 5.90062C13.1527 5.70395 13.0188 5.45338 12.9645 5.1806C12.9103 4.90781 12.9381 4.62506 13.0445 4.3681C13.151 4.11114 13.3312 3.89152 13.5625 3.737C13.7937 3.58248 14.0656 3.5 14.3438 3.5C14.7167 3.5 15.0744 3.64816 15.3381 3.91188C15.6018 4.17561 15.75 4.53329 15.75 4.90625ZM11.5312 1.8125C11.838 1.81265 12.1363 1.91312 12.3807 2.09859C12.6251 2.28405 12.8021 2.54434 12.8848 2.83977C12.5967 3.04247 12.3541 3.30308 12.1725 3.60492C11.9908 3.90675 11.8742 4.24317 11.8301 4.59266C11.7319 4.61387 11.6317 4.62471 11.5312 4.625C11.1583 4.625 10.8006 4.47684 10.5369 4.21312C10.2732 3.9494 10.125 3.59171 10.125 3.21875C10.125 2.84579 10.2732 2.48811 10.5369 2.22438C10.8006 1.96066 11.1583 1.8125 11.5312 1.8125Z" fill="#757575"/>
</svg>
