<svg width="16" height="13" viewBox="0 0 16 13" fill="none" xmlns="http://www.w3.org/2000/svg">
<path d="M2.9375 3.625C2.78832 3.625 2.64524 3.68426 2.53975 3.78975C2.43426 3.89524 2.375 4.03832 2.375 4.1875C2.375 4.33668 2.43426 4.47976 2.53975 4.58525C2.64524 4.69074 2.78832 4.75 2.9375 4.75H10.8125C10.9617 4.75 11.1048 4.69074 11.2102 4.58525C11.3157 4.47976 11.375 4.33668 11.375 4.1875C11.375 4.03832 11.3157 3.89524 11.2102 3.78975C11.1048 3.68426 10.9617 3.625 10.8125 3.625H2.9375ZM2.9375 5.875C2.78832 5.875 2.64524 5.93426 2.53975 6.03975C2.43426 6.14524 2.375 6.28832 2.375 6.4375V8.6875C2.375 8.83668 2.43426 8.97976 2.53975 9.08525C2.64524 9.19074 2.78832 9.25 2.9375 9.25H5.1875C5.33668 9.25 5.47976 9.19074 5.58525 9.08525C5.69074 8.97976 5.75 8.83668 5.75 8.6875V6.4375C5.75 6.28832 5.69074 6.14524 5.58525 6.03975C5.47976 5.93426 5.33668 5.875 5.1875 5.875H2.9375ZM3.5 8.125V7H4.625V8.125H3.5ZM7.4375 5.875C7.28832 5.875 7.14524 5.93426 7.03975 6.03975C6.93426 6.14524 6.875 6.28832 6.875 6.4375C6.875 6.58668 6.93426 6.72976 7.03975 6.83525C7.14524 6.94074 7.28832 7 7.4375 7H10.8125C10.9617 7 11.1048 6.94074 11.2102 6.83525C11.3157 6.72976 11.375 6.58668 11.375 6.4375C11.375 6.28832 11.3157 6.14524 11.2102 6.03975C11.1048 5.93426 10.9617 5.875 10.8125 5.875H7.4375ZM7.4375 8.125C7.28832 8.125 7.14524 8.18426 7.03975 8.28975C6.93426 8.39524 6.875 8.53832 6.875 8.6875C6.875 8.83668 6.93426 8.97976 7.03975 9.08525C7.14524 9.19074 7.28832 9.25 7.4375 9.25H10.8125C10.9617 9.25 11.1048 9.19074 11.2102 9.08525C11.3157 8.97976 11.375 8.83668 11.375 8.6875C11.375 8.53832 11.3157 8.39524 11.2102 8.28975C11.1048 8.18426 10.9617 8.125 10.8125 8.125H7.4375ZM0.125 2.5C0.125 1.90326 0.362053 1.33097 0.78401 0.90901C1.20597 0.487053 1.77826 0.25 2.375 0.25H11.375C11.9717 0.25 12.544 0.487053 12.966 0.90901C13.3879 1.33097 13.625 1.90326 13.625 2.5C14.2217 2.5 14.794 2.73705 15.216 3.15901C15.6379 3.58097 15.875 4.15326 15.875 4.75V9.8125C15.875 10.5584 15.5787 11.2738 15.0512 11.8012C14.5238 12.3287 13.8084 12.625 13.0625 12.625H2.9375C2.19158 12.625 1.47621 12.3287 0.948762 11.8012C0.421316 11.2738 0.125 10.5584 0.125 9.8125V2.5ZM13.0625 9.8125C12.9133 9.8125 12.7702 9.75324 12.6648 9.64775C12.5593 9.54226 12.5 9.39918 12.5 9.25V2.5C12.5 2.20163 12.3815 1.91548 12.1705 1.7045C11.9595 1.49353 11.6734 1.375 11.375 1.375H2.375C2.07663 1.375 1.79048 1.49353 1.5795 1.7045C1.36853 1.91548 1.25 2.20163 1.25 2.5V9.8125C1.25 10.2601 1.42779 10.6893 1.74426 11.0057C2.06072 11.3222 2.48995 11.5 2.9375 11.5H13.0625C13.5101 11.5 13.9393 11.3222 14.2557 11.0057C14.5722 10.6893 14.75 10.2601 14.75 9.8125V4.75C14.75 4.45163 14.6315 4.16548 14.4205 3.9545C14.2095 3.74353 13.9234 3.625 13.625 3.625V9.25C13.625 9.39918 13.5657 9.54226 13.4602 9.64775C13.3548 9.75324 13.2117 9.8125 13.0625 9.8125Z" fill="#757575"/>
</svg>
