<svg width="16" height="16" viewBox="0 0 16 16" fill="none" xmlns="http://www.w3.org/2000/svg">
<path d="M9.4375 12.0625C9.5875 12.0625 9.71875 12.0062 9.83125 11.8937C9.94375 11.7812 10 11.65 10 11.5C10 11.35 9.94375 11.2188 9.83125 11.1063C9.71875 10.9938 9.5875 10.9375 9.4375 10.9375C9.2875 10.9375 9.15625 10.9938 9.04375 11.1063C8.93125 11.2188 8.875 11.35 8.875 11.5C8.875 11.65 8.93125 11.7812 9.04375 11.8937C9.15625 12.0062 9.2875 12.0625 9.4375 12.0625ZM11.5 12.0625C11.65 12.0625 11.7812 12.0062 11.8937 11.8937C12.0062 11.7812 12.0625 11.65 12.0625 11.5C12.0625 11.35 12.0062 11.2188 11.8937 11.1063C11.7812 10.9938 11.65 10.9375 11.5 10.9375C11.35 10.9375 11.2188 10.9938 11.1063 11.1063C10.9938 11.2188 10.9375 11.35 10.9375 11.5C10.9375 11.65 10.9938 11.7812 11.1063 11.8937C11.2188 12.0062 11.35 12.0625 11.5 12.0625ZM13.5625 12.0625C13.7125 12.0625 13.8438 12.0062 13.9562 11.8937C14.0687 11.7812 14.125 11.65 14.125 11.5C14.125 11.35 14.0687 11.2188 13.9562 11.1063C13.8438 10.9938 13.7125 10.9375 13.5625 10.9375C13.4125 10.9375 13.2812 10.9938 13.1688 11.1063C13.0563 11.2188 13 11.35 13 11.5C13 11.65 13.0563 11.7812 13.1688 11.8937C13.2812 12.0062 13.4125 12.0625 13.5625 12.0625ZM1.75 13.75C1.3375 13.75 0.9845 13.6033 0.691 13.3097C0.3975 13.0162 0.2505 12.663 0.25 12.25V1.75C0.25 1.3375 0.397 0.9845 0.691 0.691C0.985 0.3975 1.338 0.2505 1.75 0.25H12.25C12.6625 0.25 13.0157 0.397 13.3097 0.691C13.6038 0.985 13.7505 1.338 13.75 1.75V6.775C13.5125 6.6625 13.2688 6.56575 13.0187 6.48475C12.7687 6.40375 12.5125 6.34425 12.25 6.30625V1.75H1.75V12.25H6.2875C6.325 12.525 6.3845 12.7875 6.466 13.0375C6.5475 13.2875 6.64425 13.525 6.75625 13.75H1.75ZM1.75 11.5V12.25V1.75V6.30625V6.25V11.5ZM3.25 10.75H6.30625C6.34375 10.4875 6.40325 10.2313 6.48475 9.98125C6.56625 9.73125 6.65675 9.4875 6.75625 9.25H3.25V10.75ZM3.25 7.75H7.825C8.225 7.375 8.672 7.0625 9.166 6.8125C9.66 6.5625 10.188 6.39375 10.75 6.30625V6.25H3.25V7.75ZM3.25 4.75H10.75V3.25H3.25V4.75ZM11.5 15.25C10.4625 15.25 9.57825 14.8843 8.84725 14.1528C8.11625 13.4213 7.7505 12.537 7.75 11.5C7.7495 10.463 8.11525 9.57875 8.84725 8.84725C9.57925 8.11575 10.4635 7.75 11.5 7.75C12.5365 7.75 13.421 8.11575 14.1535 8.84725C14.886 9.57875 15.2515 10.463 15.25 11.5C15.2485 12.537 14.8828 13.4215 14.1528 14.1535C13.4228 14.8855 12.5385 15.251 11.5 15.25Z" fill="#757575"/>
</svg>
