<svg width="18" height="18" viewBox="0 0 18 18" fill="none" xmlns="http://www.w3.org/2000/svg">
<path d="M11.8125 0C8.3925 0 5.625 0.99 5.625 2.25V4.5C2.25 4.6125 0 5.5575 0 6.75V13.5C0 14.7262 2.7675 15.75 6.1875 15.75H6.26288C7.08637 15.7493 7.89375 15.6892 8.685 15.57C9.47025 17.0381 11.0407 17.9977 12.8363 17.9977C13.9153 17.9981 14.9647 17.6441 15.8232 16.9903C16.6816 16.3365 17.3017 15.419 17.5882 14.3786C17.8234 14.1547 17.9753 13.8814 18.0011 13.572V2.25C18.0011 0.99 15.2336 0 11.8136 0H11.8125ZM6.1875 5.625C9 5.625 11.25 6.13125 11.25 6.75C11.25 7.36875 9 7.875 6.1875 7.875C3.375 7.875 1.125 7.36875 1.125 6.75C1.125 6.13125 3.375 5.625 6.1875 5.625ZM6.1875 14.625C3.13875 14.625 1.40625 13.8263 1.125 13.5V12.6C2.73259 13.2749 4.47071 13.582 6.21225 13.4989C6.78375 13.4977 7.371 13.4651 7.94925 13.4032C7.90088 13.8206 7.974 14.2043 8.08763 14.5699C7.57912 14.5935 6.99975 14.6272 6.41363 14.6272L6.17625 14.625H6.1875ZM7.95375 12.2738C7.42838 12.3379 6.81975 12.375 6.20325 12.375H6.1875C3.13987 12.375 1.40738 11.5763 1.12613 11.25V10.305C2.72871 10.9951 4.46536 11.3179 6.20888 11.25C6.92263 11.2487 7.63554 11.2006 8.343 11.106C8.12138 11.4502 8.01562 11.8418 7.95825 12.2479L7.95375 12.2738ZM6.1875 10.125C3.13875 10.125 1.40625 9.32625 1.125 9V7.9875C2.72759 8.67756 4.46423 9.00044 6.20775 8.9325C7.96548 8.99109 9.71426 8.65832 11.3276 7.95825L11.2511 8.37C10.4067 8.65418 9.65463 9.161 9.07425 9.837C8.22825 10.0226 7.26187 10.125 6.27187 10.125H6.18525H6.1875ZM12.8363 16.875C11.8188 16.875 10.843 16.4708 10.1236 15.7514C9.40417 15.032 9 14.0562 9 13.0387C9 12.0213 9.40417 11.0455 10.1236 10.3261C10.843 9.60668 11.8188 9.2025 12.8363 9.2025C13.8537 9.2025 14.8295 9.60668 15.5489 10.3261C16.2683 11.0455 16.6725 12.0213 16.6725 13.0387C16.6725 14.0562 16.2683 15.032 15.5489 15.7514C14.8295 16.4708 13.8537 16.875 12.8363 16.875ZM16.875 9C16.6781 9.18787 16.4419 9.3375 16.1809 9.43425C15.8569 9.15975 15.5059 8.91675 15.1256 8.721C15.7469 8.56023 16.348 8.33003 16.9177 8.03475L16.875 9ZM16.875 6.75C16.605 7.09875 15.0638 7.8075 12.375 7.875V6.75H12.3874C13.9577 6.75112 15.5109 6.42347 16.947 5.78813L16.875 6.75ZM16.875 4.5C16.5938 4.87125 14.8612 5.625 11.8125 5.625H11.5538C10.1023 4.88182 8.49429 4.49612 6.86362 4.5H6.75V3.4875C8.35259 4.17756 10.0892 4.50044 11.8327 4.4325C13.5905 4.49109 15.3393 4.15832 16.9526 3.45825L16.875 4.5ZM11.8125 3.375C9 3.375 6.75 2.86875 6.75 2.25C6.75 1.63125 9 1.125 11.8125 1.125C14.625 1.125 16.875 1.63125 16.875 2.25C16.875 2.86875 14.625 3.375 11.8125 3.375Z" fill="#757575"/>
</svg>
